<?xml version="1.0" encoding="UTF-8" standalone="no"?>
<!-- Uploaded to: SVG Repo, www.svgrepo.com, Generator: SVG Repo Mixer Tools -->

<svg
   viewBox="0 0 16 16"
   fill="none"
   version="1.1"
   id="svg4"
   sodipodi:docname="duncan.svg"
   inkscape:version="1.2 (dc2aedaf03, 2022-05-15)"
   xmlns:inkscape="http://www.inkscape.org/namespaces/inkscape"
   xmlns:sodipodi="http://sodipodi.sourceforge.net/DTD/sodipodi-0.dtd"
   xmlns="http://www.w3.org/2000/svg"
   xmlns:svg="http://www.w3.org/2000/svg">
  <defs
     id="defs8" />
  <sodipodi:namedview
     id="namedview6"
     pagecolor="#505050"
     bordercolor="#eeeeee"
     borderopacity="1"
     inkscape:showpageshadow="0"
     inkscape:pageopacity="0"
     inkscape:pagecheckerboard="0"
     inkscape:deskcolor="#505050"
     showgrid="false"
     inkscape:zoom="0.7327394"
     inkscape:cx="406.01065"
     inkscape:cy="427.16414"
     inkscape:window-width="1920"
     inkscape:window-height="1009"
     inkscape:window-x="1912"
     inkscape:window-y="-8"
     inkscape:window-maximized="1"
     inkscape:current-layer="svg4" />
  <circle
     style="fill:#d3dae2;fill-opacity:1;stroke:none;stroke-width:0.4;stroke-linecap:round;stroke-linejoin:round"
     id="path3130"
     cx="2.2108815"
     cy="7.9700913"
     r="1.1736778" />
  <circle
     style="fill:#d3dae2;fill-opacity:1;stroke:none;stroke-width:0.4;stroke-linecap:round;stroke-linejoin:round"
     id="path3130-3"
     cx="13.783891"
     cy="2.7567782"
     r="1.1736778" />
  <circle
     style="fill:#d3dae2;fill-opacity:1;stroke:none;stroke-width:0.4;stroke-linecap:round;stroke-linejoin:round"
     id="path3130-0"
     cx="13.811187"
     cy="13.183405"
     r="1.1736778" />
  <rect
     style="fill:#d3dae2;fill-opacity:1;stroke:none;stroke-width:0.4;stroke-linecap:round;stroke-linejoin:round"
     id="rect3232"
     width="4.0942249"
     height="4.0942249"
     x="7.0693622"
     y="5.9775681" />
  <path
     fill="#000000"
     fill-rule="evenodd"
     d="M13.75.5a2.25 2.25 0 00-1.847 3.536l-.933.934a.752.752 0 00-.11.14c-.19-.071-.396-.11-.61-.11h-2.5A1.75 1.75 0 006 6.75v.5H4.372a2.25 2.25 0 100 1.5H6v.5c0 .966.784 1.75 1.75 1.75h2.5c.214 0 .42-.039.61-.11.03.05.067.097.11.14l.933.934a2.25 2.25 0 101.24-.881L12.03 9.97a.75.75 0 00-.14-.11c.071-.19.11-.396.11-.61v-2.5c0-.214-.039-.42-.11-.61a.75.75 0 00.14-.11l1.113-1.113A2.252 2.252 0 0016 2.75 2.25 2.25 0 0013.75.5zM13 2.75a.75.75 0 111.5 0 .75.75 0 01-1.5 0zM7.75 6.5a.25.25 0 00-.25.25v2.5c0 .138.112.25.25.25h2.5a.25.25 0 00.25-.25v-2.5a.25.25 0 00-.25-.25h-2.5zm6 6a.75.75 0 100 1.5.75.75 0 000-1.5zM1.5 8A.75.75 0 113 8a.75.75 0 01-1.5 0z"
     clip-rule="evenodd"
     id="path2"
     style="fill:#8a97ad;fill-opacity:1" />
</svg>
